<mxfile host="Electron" modified="2024-04-08T14:58:48.483Z" agent="Mozilla/5.0 (Windows NT 10.0; Win64; x64) AppleWebKit/537.36 (KHTML, like Gecko) draw.io/24.1.0 Chrome/120.0.6099.109 Electron/28.1.0 Safari/537.36" etag="WFJAQuyzLn1mwJnXQIYy" version="24.1.0" type="device">
  <diagram name="Page-1" id="7e0a89b8-554c-2b80-1dc8-d5c74ca68de4">
    <mxGraphModel dx="880" dy="572" grid="1" gridSize="10" guides="1" tooltips="1" connect="1" arrows="1" fold="1" page="1" pageScale="1" pageWidth="1100" pageHeight="850" background="none" math="0" shadow="0">
      <root>
        <mxCell id="0" />
        <mxCell id="1" parent="0" />
        <mxCell id="knAoUj85G3OYQ-1KnoRY-1" value="" style="pointerEvents=1;verticalLabelPosition=bottom;shadow=0;dashed=0;align=center;html=1;verticalAlign=top;shape=mxgraph.electrical.resistors.resistor_2;rotation=90;" parent="1" vertex="1">
          <mxGeometry x="390" y="370" width="100" height="20" as="geometry" />
        </mxCell>
        <mxCell id="knAoUj85G3OYQ-1KnoRY-8" value="" style="endArrow=none;html=1;rounded=0;endSize=0;" parent="1" edge="1">
          <mxGeometry width="50" height="50" relative="1" as="geometry">
            <mxPoint x="440" y="330" as="sourcePoint" />
            <mxPoint x="440" y="260" as="targetPoint" />
            <Array as="points">
              <mxPoint x="440" y="320" />
            </Array>
          </mxGeometry>
        </mxCell>
        <mxCell id="knAoUj85G3OYQ-1KnoRY-9" value="" style="pointerEvents=1;fillColor=strokeColor;verticalLabelPosition=bottom;shadow=0;dashed=0;align=center;html=1;verticalAlign=top;shape=mxgraph.electrical.diodes.diode;rotation=90;" parent="1" vertex="1">
          <mxGeometry x="405" y="440" width="70" height="50" as="geometry" />
        </mxCell>
        <mxCell id="knAoUj85G3OYQ-1KnoRY-12" value="" style="pointerEvents=1;verticalLabelPosition=bottom;shadow=0;dashed=0;align=center;html=1;verticalAlign=top;shape=mxgraph.electrical.signal_sources.signal_ground;" parent="1" vertex="1">
          <mxGeometry x="417.5" y="570" width="45" height="30" as="geometry" />
        </mxCell>
        <mxCell id="knAoUj85G3OYQ-1KnoRY-14" value="" style="endArrow=none;html=1;rounded=0;entryX=1;entryY=0.5;entryDx=0;entryDy=0;entryPerimeter=0;" parent="1" target="knAoUj85G3OYQ-1KnoRY-9" edge="1">
          <mxGeometry width="50" height="50" relative="1" as="geometry">
            <mxPoint x="440" y="580" as="sourcePoint" />
            <mxPoint x="490" y="530" as="targetPoint" />
            <Array as="points" />
          </mxGeometry>
        </mxCell>
        <mxCell id="knAoUj85G3OYQ-1KnoRY-15" value="" style="shape=crossbar;whiteSpace=wrap;html=1;rounded=1;" parent="1" vertex="1">
          <mxGeometry x="410" y="250" width="60" height="20" as="geometry" />
        </mxCell>
        <mxCell id="knAoUj85G3OYQ-1KnoRY-26" value="&lt;b&gt;VDD = 3,3V&lt;/b&gt;" style="text;html=1;align=center;verticalAlign=middle;resizable=0;points=[];autosize=1;strokeColor=none;fillColor=none;" parent="1" vertex="1">
          <mxGeometry x="392.5" y="220" width="90" height="30" as="geometry" />
        </mxCell>
        <mxCell id="knAoUj85G3OYQ-1KnoRY-27" value="&lt;b&gt;R1 = 55 ohm&lt;/b&gt;" style="text;html=1;align=center;verticalAlign=middle;whiteSpace=wrap;rounded=0;" parent="1" vertex="1">
          <mxGeometry x="440" y="370" width="125" height="30" as="geometry" />
        </mxCell>
        <mxCell id="knAoUj85G3OYQ-1KnoRY-29" value="Text" style="text;html=1;align=center;verticalAlign=middle;whiteSpace=wrap;rounded=0;" parent="1" vertex="1">
          <mxGeometry x="420" y="440" width="60" height="30" as="geometry" />
        </mxCell>
        <mxCell id="knAoUj85G3OYQ-1KnoRY-30" value="&lt;b&gt;LED&lt;/b&gt;" style="text;html=1;align=center;verticalAlign=middle;whiteSpace=wrap;rounded=0;" parent="1" vertex="1">
          <mxGeometry x="462.5" y="450" width="60" height="30" as="geometry" />
        </mxCell>
      </root>
    </mxGraphModel>
  </diagram>
</mxfile>
